<svg width="16" height="14" viewBox="0 0 16 14" fill="none" xmlns="http://www.w3.org/2000/svg">
<g clip-path="url(#clip0_3835_712)">
<path d="M14.2008 2.88484C14.8685 2.48677 15.4026 1.8565 15.6363 1.09353C15.002 1.45843 14.301 1.72381 13.5332 1.88967C12.9323 1.2594 12.0644 0.861328 11.1297 0.861328C9.32701 0.861328 7.85819 2.32091 7.85819 4.11221C7.85819 4.37759 7.89157 4.6098 7.95833 4.842C5.25436 4.70931 2.81744 3.41559 1.1817 1.42526C0.914639 1.92284 0.747727 2.4536 0.747727 3.0507C0.747727 4.17856 1.31523 5.17373 2.21655 5.77083C1.68244 5.73765 1.1817 5.60497 0.714344 5.37276V5.40593C0.714344 6.9982 1.84935 8.32509 3.35156 8.62364C3.0845 8.68999 2.78406 8.72316 2.48361 8.72316C2.28332 8.72316 2.04964 8.68999 1.84935 8.65682C2.28332 9.95053 3.48509 10.9125 4.92053 10.9125C3.78553 11.775 2.38347 12.3058 0.847874 12.3058C0.580815 12.3058 0.313755 12.3058 0.0800781 12.2726C1.54891 13.2014 3.25141 13.7322 5.12083 13.7322C11.163 13.7322 14.4679 8.75633 14.4679 4.44393C14.4679 4.31125 14.4679 4.14538 14.4679 4.0127C15.1022 3.58146 15.6697 3.01753 16.1036 2.35408C15.5028 2.61946 14.8685 2.78532 14.2008 2.88484Z" fill="#2749E6"/>
</g>
<defs>
<clipPath id="clip0_3835_712">
<rect width="15.7171" height="12.8708" fill="white" transform="translate(0.0800781 0.861328)"/>
</clipPath>
</defs>
</svg>
