<svg width="20" height="20" viewBox="0 0 20 20" fill="none" xmlns="http://www.w3.org/2000/svg">
<g clip-path="url(#clip0_3835_720)">
<path fill-rule="evenodd" clip-rule="evenodd" d="M13.798 1.79548C14.4141 1.80297 15.0243 1.91538 15.6021 2.12783C16.0211 2.28841 16.4016 2.5344 16.7192 2.84997C17.0368 3.16554 17.2843 3.54369 17.4459 3.96008C17.6597 4.53427 17.7729 5.14063 17.7804 5.75281C17.8266 6.77098 17.8368 7.07621 17.8368 9.65359C17.8368 12.231 17.8271 12.5362 17.7804 13.5544C17.7729 14.1666 17.6597 14.7729 17.4459 15.3471C17.2843 15.7635 17.0368 16.1416 16.7192 16.4572C16.4016 16.7728 16.0211 17.0188 15.6021 17.1794C15.0243 17.3918 14.4141 17.5042 13.798 17.5117C12.7738 17.5577 12.4667 17.5678 9.87249 17.5678C7.27832 17.5678 6.97116 17.5581 5.947 17.5117C5.33094 17.5042 4.72074 17.3918 4.14291 17.1794C3.72388 17.0188 3.34334 16.7728 3.02577 16.4572C2.7082 16.1416 2.46065 15.7635 2.29905 15.3471C2.08526 14.7729 1.97214 14.1666 1.9646 13.5544C1.91834 12.5362 1.90816 12.231 1.90816 9.65359C1.90816 7.07621 1.91788 6.77098 1.9646 5.75281C1.97214 5.14063 2.08526 4.53427 2.29905 3.96008C2.46065 3.54369 2.7082 3.16554 3.02577 2.84997C3.34334 2.5344 3.72388 2.28841 4.14291 2.12783C4.72074 1.91538 5.33094 1.80297 5.947 1.79548C6.97162 1.74952 7.27878 1.7394 9.87249 1.7394C12.4662 1.7394 12.7734 1.74906 13.798 1.79548ZM5.86743 0.0579188C5.06117 0.0738547 4.26346 0.225553 3.50825 0.50656C2.86039 0.749114 2.2736 1.12922 1.78882 1.62035C1.29413 2.10226 0.911289 2.68568 0.667047 3.32987C0.384259 4.08033 0.231601 4.87302 0.215564 5.6742C0.169305 6.70295 0.158203 7.033 0.158203 9.65313C0.158203 12.2733 0.169305 12.6033 0.216489 13.633C0.232526 14.4342 0.385185 15.2269 0.667972 15.9773C0.911943 16.6214 1.29446 17.2048 1.78882 17.6868C2.27387 18.1781 2.86099 18.5582 3.50917 18.8006C4.26439 19.0816 5.06209 19.2333 5.86836 19.2493C6.90455 19.2952 7.2353 19.3072 9.87342 19.3072C12.5115 19.3072 12.8423 19.2962 13.8785 19.2493C14.6847 19.2333 15.4825 19.0816 16.2377 18.8006C16.8828 18.5521 17.4686 18.1726 17.9577 17.6863C18.4467 17.2 18.8283 16.6176 19.0779 15.9764C19.3607 15.2259 19.5134 14.4333 19.5294 13.6321C19.5757 12.6033 19.5868 12.2733 19.5868 9.65313C19.5868 7.033 19.5757 6.70295 19.5285 5.67329C19.5125 4.8721 19.3598 4.07941 19.077 3.32895C18.833 2.68485 18.4505 2.10143 17.9562 1.61943C17.4711 1.12819 16.884 0.748076 16.2358 0.50564C15.4806 0.224633 14.6829 0.0729354 13.8766 0.0569995C12.8414 0.0110322 12.5092 0 9.87249 0C7.23576 0 6.90362 0.0110321 5.86743 0.0579188Z" fill="#2749E6"/>
<path fill-rule="evenodd" clip-rule="evenodd" d="M7.09888 5.53171C6.27853 6.07641 5.63914 6.8506 5.26157 7.7564C4.884 8.66219 4.78521 9.6589 4.97769 10.6205C5.17017 11.5821 5.64529 12.4653 6.34294 13.1586C7.0406 13.8519 7.92947 14.324 8.89715 14.5153C9.86482 14.7065 10.8678 14.6084 11.7794 14.2332C12.6909 13.858 13.47 13.2226 14.0182 12.4074C14.5663 11.5922 14.8589 10.6338 14.8589 9.6534C14.8589 8.3387 14.3333 7.07783 13.3978 6.14819C12.4622 5.21856 11.1934 4.69629 9.87036 4.69629C8.88372 4.69629 7.91924 4.98702 7.09888 5.53171ZM8.07137 12.3288C7.53886 11.9753 7.12383 11.4727 6.87875 10.8848C6.63366 10.2968 6.56954 9.64983 6.69448 9.02566C6.81942 8.40148 7.12782 7.82814 7.58068 7.37814C8.03353 6.92813 8.61051 6.62168 9.23864 6.49752C9.86676 6.37336 10.5178 6.43708 11.1095 6.68063C11.7012 6.92417 12.2069 7.33659 12.5627 7.86574C12.9185 8.39489 13.1085 9.017 13.1085 9.6534C13.1085 10.5068 12.7673 11.3252 12.16 11.9287C11.5528 12.5321 10.7292 12.8711 9.87036 12.8711C9.22992 12.8711 8.60387 12.6824 8.07137 12.3288Z" fill="#2749E6"/>
<path fill-rule="evenodd" clip-rule="evenodd" d="M15.0573 5.65855C14.4135 5.65855 13.8916 5.13993 13.8916 4.50017C13.8916 3.86042 14.4135 3.3418 15.0573 3.3418C15.7011 3.3418 16.223 3.86042 16.223 4.50017C16.223 5.13993 15.7011 5.65855 15.0573 5.65855Z" fill="#2749E6"/>
</g>
<defs>
<clipPath id="clip0_3835_720">
<rect width="19.057" height="19.3072" fill="white" transform="translate(0.158203)"/>
</clipPath>
</defs>
</svg>
