<svg width="20" height="19" viewBox="0 0 20 19" fill="none" xmlns="http://www.w3.org/2000/svg">
<g clip-path="url(#clip0_3835_730)">
<path fill-rule="evenodd" clip-rule="evenodd" d="M0.948242 9.23377C0.948242 13.312 3.61977 16.7747 7.29795 18.0058C7.76257 18.0828 7.91744 17.8135 7.91744 17.5442C7.91744 17.3133 7.91744 16.7362 7.91744 15.9667C5.32335 16.5438 4.7813 14.7356 4.7813 14.7356C4.3554 13.6583 3.73592 13.389 3.73592 13.389C2.88413 12.8119 3.81336 12.8119 3.81336 12.8119C4.74258 12.8888 5.24591 13.7737 5.24591 13.7737C6.05899 15.1972 7.41411 14.774 7.95616 14.5432C8.03359 13.9276 8.2659 13.5429 8.53692 13.312C6.48488 13.0812 4.31669 12.2732 4.31669 8.7336C4.31669 7.73328 4.66515 6.88685 5.28463 6.27127C5.2072 6.04042 4.85874 5.11704 5.36207 3.80893C5.36207 3.80893 6.13642 3.57808 7.91744 4.77078C8.65308 4.57841 9.46615 4.46299 10.2405 4.46299C11.0149 4.46299 11.8279 4.57841 12.5636 4.77078C14.3446 3.57808 15.1189 3.80893 15.1189 3.80893C15.6223 5.07857 15.3125 6.00195 15.1964 6.27127C15.7771 6.92532 16.1643 7.73328 16.1643 8.7336C16.1643 12.2732 13.9961 13.0427 11.9054 13.2735C12.2538 13.5429 12.5249 14.12 12.5249 14.9664C12.5249 16.1976 12.5249 17.1979 12.5249 17.5057C12.5249 17.7365 12.6797 18.0443 13.1831 17.9674C16.8612 16.7747 19.5328 13.312 19.5328 9.23377C19.5328 4.11672 15.39 0 10.2405 0C5.09104 0 0.948242 4.11672 0.948242 9.23377Z" fill="#2749E6"/>
</g>
<defs>
<clipPath id="clip0_3835_730">
<rect width="18.2291" height="18.0192" fill="white" transform="translate(0.948242)"/>
</clipPath>
</defs>
</svg>
