<svg width="159" height="160" viewBox="0 0 159 160" fill="none" xmlns="http://www.w3.org/2000/svg">
<circle cx="3" cy="3" r="3" fill="#021931" fill-opacity="0.2"/>
<circle cx="3" cy="21" r="3" fill="#021931" fill-opacity="0.2"/>
<circle cx="3" cy="39" r="3" fill="#021931" fill-opacity="0.2"/>
<circle cx="3" cy="57" r="3" fill="#021931" fill-opacity="0.2"/>
<circle cx="3" cy="75" r="3" fill="#021931" fill-opacity="0.2"/>
<circle cx="3" cy="89" r="3" fill="#021931" fill-opacity="0.2"/>
<circle cx="3" cy="105" r="3" fill="#021931" fill-opacity="0.2"/>
<circle cx="3" cy="123" r="3" fill="#021931" fill-opacity="0.2"/>
<circle cx="3" cy="139" r="3" fill="#021931" fill-opacity="0.2"/>
<circle cx="3" cy="157" r="3" fill="#021931" fill-opacity="0.2"/>
<circle cx="20" cy="3" r="3" fill="#021931" fill-opacity="0.2"/>
<circle cx="20" cy="21" r="3" fill="#021931" fill-opacity="0.2"/>
<circle cx="20" cy="39" r="3" fill="#021931" fill-opacity="0.2"/>
<circle cx="20" cy="57" r="3" fill="#021931" fill-opacity="0.2"/>
<circle cx="20" cy="75" r="3" fill="#021931" fill-opacity="0.2"/>
<circle cx="20" cy="89" r="3" fill="#021931" fill-opacity="0.2"/>
<circle cx="20" cy="105" r="3" fill="#021931" fill-opacity="0.2"/>
<circle cx="20" cy="123" r="3" fill="#021931" fill-opacity="0.2"/>
<circle cx="20" cy="139" r="3" fill="#021931" fill-opacity="0.2"/>
<circle cx="20" cy="157" r="3" fill="#021931" fill-opacity="0.2"/>
<circle cx="37" cy="3" r="3" fill="#021931" fill-opacity="0.2"/>
<circle cx="37" cy="21" r="3" fill="#021931" fill-opacity="0.2"/>
<circle cx="37" cy="39" r="3" fill="#021931" fill-opacity="0.2"/>
<circle cx="37" cy="57" r="3" fill="#021931" fill-opacity="0.2"/>
<circle cx="37" cy="75" r="3" fill="#021931" fill-opacity="0.2"/>
<circle cx="37" cy="89" r="3" fill="#021931" fill-opacity="0.2"/>
<circle cx="37" cy="105" r="3" fill="#021931" fill-opacity="0.2"/>
<circle cx="37" cy="123" r="3" fill="#021931" fill-opacity="0.2"/>
<circle cx="37" cy="139" r="3" fill="#021931" fill-opacity="0.2"/>
<circle cx="37" cy="157" r="3" fill="#021931" fill-opacity="0.2"/>
<circle cx="105" cy="3" r="3" fill="#021931" fill-opacity="0.2"/>
<circle cx="105" cy="21" r="3" fill="#021931" fill-opacity="0.2"/>
<circle cx="105" cy="39" r="3" fill="#021931" fill-opacity="0.2"/>
<circle cx="105" cy="57" r="3" fill="#021931" fill-opacity="0.2"/>
<circle cx="105" cy="75" r="3" fill="#021931" fill-opacity="0.2"/>
<circle cx="105" cy="89" r="3" fill="#021931" fill-opacity="0.2"/>
<circle cx="105" cy="105" r="3" fill="#021931" fill-opacity="0.2"/>
<circle cx="105" cy="123" r="3" fill="#021931" fill-opacity="0.2"/>
<circle cx="105" cy="139" r="3" fill="#021931" fill-opacity="0.2"/>
<circle cx="105" cy="157" r="3" fill="#021931" fill-opacity="0.2"/>
<circle cx="54" cy="3" r="3" fill="#021931" fill-opacity="0.2"/>
<circle cx="54" cy="21" r="3" fill="#021931" fill-opacity="0.2"/>
<circle cx="54" cy="39" r="3" fill="#021931" fill-opacity="0.2"/>
<circle cx="54" cy="57" r="3" fill="#021931" fill-opacity="0.2"/>
<circle cx="54" cy="75" r="3" fill="#021931" fill-opacity="0.2"/>
<circle cx="54" cy="89" r="3" fill="#021931" fill-opacity="0.2"/>
<circle cx="54" cy="105" r="3" fill="#021931" fill-opacity="0.2"/>
<circle cx="54" cy="123" r="3" fill="#021931" fill-opacity="0.2"/>
<circle cx="54" cy="139" r="3" fill="#021931" fill-opacity="0.2"/>
<circle cx="54" cy="157" r="3" fill="#021931" fill-opacity="0.2"/>
<circle cx="122" cy="3" r="3" fill="#021931" fill-opacity="0.2"/>
<circle cx="122" cy="21" r="3" fill="#021931" fill-opacity="0.2"/>
<circle cx="122" cy="39" r="3" fill="#021931" fill-opacity="0.2"/>
<circle cx="122" cy="57" r="3" fill="#021931" fill-opacity="0.2"/>
<circle cx="122" cy="75" r="3" fill="#021931" fill-opacity="0.2"/>
<circle cx="122" cy="89" r="3" fill="#021931" fill-opacity="0.2"/>
<circle cx="122" cy="105" r="3" fill="#021931" fill-opacity="0.2"/>
<circle cx="122" cy="123" r="3" fill="#021931" fill-opacity="0.2"/>
<circle cx="122" cy="139" r="3" fill="#021931" fill-opacity="0.2"/>
<circle cx="122" cy="157" r="3" fill="#021931" fill-opacity="0.2"/>
<circle cx="71" cy="3" r="3" fill="#021931" fill-opacity="0.2"/>
<circle cx="71" cy="21" r="3" fill="#021931" fill-opacity="0.2"/>
<circle cx="71" cy="39" r="3" fill="#021931" fill-opacity="0.2"/>
<circle cx="71" cy="57" r="3" fill="#021931" fill-opacity="0.2"/>
<circle cx="71" cy="75" r="3" fill="#021931" fill-opacity="0.2"/>
<circle cx="71" cy="89" r="3" fill="#021931" fill-opacity="0.2"/>
<circle cx="71" cy="105" r="3" fill="#021931" fill-opacity="0.2"/>
<circle cx="71" cy="123" r="3" fill="#021931" fill-opacity="0.2"/>
<circle cx="71" cy="139" r="3" fill="#021931" fill-opacity="0.2"/>
<circle cx="71" cy="157" r="3" fill="#021931" fill-opacity="0.2"/>
<circle cx="139" cy="3" r="3" fill="#021931" fill-opacity="0.2"/>
<circle cx="139" cy="21" r="3" fill="#021931" fill-opacity="0.2"/>
<circle cx="139" cy="39" r="3" fill="#021931" fill-opacity="0.2"/>
<circle cx="139" cy="57" r="3" fill="#021931" fill-opacity="0.2"/>
<circle cx="139" cy="75" r="3" fill="#021931" fill-opacity="0.2"/>
<circle cx="139" cy="89" r="3" fill="#021931" fill-opacity="0.2"/>
<circle cx="139" cy="105" r="3" fill="#021931" fill-opacity="0.2"/>
<circle cx="139" cy="123" r="3" fill="#021931" fill-opacity="0.2"/>
<circle cx="139" cy="139" r="3" fill="#021931" fill-opacity="0.2"/>
<circle cx="139" cy="157" r="3" fill="#021931" fill-opacity="0.2"/>
<circle cx="88" cy="3" r="3" fill="#021931" fill-opacity="0.2"/>
<circle cx="88" cy="21" r="3" fill="#021931" fill-opacity="0.2"/>
<circle cx="88" cy="39" r="3" fill="#021931" fill-opacity="0.2"/>
<circle cx="88" cy="57" r="3" fill="#021931" fill-opacity="0.2"/>
<circle cx="88" cy="75" r="3" fill="#021931" fill-opacity="0.2"/>
<circle cx="88" cy="89" r="3" fill="#021931" fill-opacity="0.2"/>
<circle cx="88" cy="105" r="3" fill="#021931" fill-opacity="0.2"/>
<circle cx="88" cy="123" r="3" fill="#021931" fill-opacity="0.2"/>
<circle cx="88" cy="139" r="3" fill="#021931" fill-opacity="0.2"/>
<circle cx="88" cy="157" r="3" fill="#021931" fill-opacity="0.2"/>
<circle cx="156" cy="3" r="3" fill="#021931" fill-opacity="0.2"/>
<circle cx="156" cy="21" r="3" fill="#021931" fill-opacity="0.2"/>
<circle cx="156" cy="39" r="3" fill="#021931" fill-opacity="0.2"/>
<circle cx="156" cy="57" r="3" fill="#021931" fill-opacity="0.2"/>
<circle cx="156" cy="75" r="3" fill="#021931" fill-opacity="0.2"/>
<circle cx="156" cy="89" r="3" fill="#021931" fill-opacity="0.2"/>
<circle cx="156" cy="105" r="3" fill="#021931" fill-opacity="0.2"/>
<circle cx="156" cy="123" r="3" fill="#021931" fill-opacity="0.2"/>
<circle cx="156" cy="139" r="3" fill="#021931" fill-opacity="0.2"/>
<circle cx="156" cy="157" r="3" fill="#021931" fill-opacity="0.2"/>
</svg>
