<svg width="60" height="67" viewBox="0 0 60 67" fill="none" xmlns="http://www.w3.org/2000/svg">
<g clip-path="url(#clip0_3845_1676)">
<circle opacity="0.2" cx="30" cy="30.1162" r="30" fill="#FFAC0D"/>
<path fill-rule="evenodd" clip-rule="evenodd" d="M36.9862 28.8012L39 26.1162C36.4913 24.2337 33.375 23.1162 30 23.1162C26.625 23.1162 23.5087 24.2337 21 26.1162L30 38.1162L32.625 34.6175V32.4912C32.625 30.4212 34.305 28.7412 36.375 28.7412C36.585 28.7412 36.7837 28.7712 36.9862 28.8012ZM38.25 32.4912C38.25 31.4562 37.41 30.6162 36.375 30.6162C35.34 30.6162 34.5 31.4562 34.5 32.4912V33.6162C34.0875 33.6162 33.75 33.9537 33.75 34.3662V37.3662C33.75 37.7787 34.0875 38.1162 34.5 38.1162H38.25C38.6625 38.1162 39 37.7787 39 37.3662V34.3662C39 33.9537 38.6625 33.6162 38.25 33.6162V32.4912ZM35.25 33.6162V32.4912C35.25 31.8687 35.7525 31.3662 36.375 31.3662C36.9975 31.3662 37.5 31.8687 37.5 32.4912V33.6162H35.25Z" fill="#FFAC0D"/>
</g>
<defs>
<clipPath id="clip0_3845_1676">
<rect width="60" height="66.2325" fill="white" transform="translate(0 0.116211)"/>
</clipPath>
</defs>
</svg>
