<svg width="60" height="67" viewBox="0 0 60 67" fill="none" xmlns="http://www.w3.org/2000/svg">
<g clip-path="url(#clip0_3845_1664)">
<circle opacity="0.2" cx="30" cy="30.1162" r="30" fill="#1FCA74"/>
<path fill-rule="evenodd" clip-rule="evenodd" d="M31.4671 23.0124C32.0359 23.0124 32.4152 22.6332 32.4152 22.0643C32.4152 21.4955 32.0359 21.1162 31.4671 21.1162H27.6747C27.1058 21.1162 26.7266 21.4955 26.7266 22.0643C26.7266 22.6332 27.1058 23.0124 27.6747 23.0124H31.4671ZM36.3972 26.0463C36.7765 25.6671 36.7765 25.0982 36.3972 24.719C36.018 24.3398 35.4491 24.3398 35.0699 24.719L34.2166 25.5723C31.4671 23.3917 27.6747 23.3917 24.9252 25.5723L24.0719 24.719C23.6926 24.3398 23.1238 24.3398 22.7445 24.719C22.3653 25.0982 22.3653 25.6671 22.7445 26.0463L23.5978 26.8996C21.0379 30.218 21.6068 34.9585 24.9252 37.5184C28.2435 40.0783 32.984 39.5094 35.5439 36.1911C37.7246 33.4416 37.7246 29.6491 35.5439 26.8996L36.3972 26.0463ZM29.5709 33.4416C28.528 33.4416 27.6747 32.5883 27.6747 31.5453C27.6747 30.8817 28.0539 30.218 28.6228 29.9336V27.7529C28.6228 27.1841 29.002 26.8048 29.5709 26.8048C30.1397 26.8048 30.519 27.1841 30.519 27.7529V29.9336C31.4671 30.4076 31.7515 31.5453 31.1826 32.4934C30.8034 33.0623 30.2345 33.4416 29.5709 33.4416Z" fill="#1FCA74"/>
</g>
<defs>
<clipPath id="clip0_3845_1664">
<rect width="60" height="66.2325" fill="white" transform="translate(0 0.116211)"/>
</clipPath>
</defs>
</svg>
