<svg width="389" height="420" viewBox="0 0 389 420" fill="none" xmlns="http://www.w3.org/2000/svg">
<g opacity="0.15" clip-path="url(#clip0_3845_2514)">
<circle cx="-141.5" cy="16.8145" r="528" stroke="white" stroke-width="5"/>
<path d="M303.406 16.8137C303.406 262.524 103.992 461.717 -142.004 461.717C-388 461.717 -587.414 262.524 -587.414 16.8137C-587.414 -228.897 -388 -428.09 -142.004 -428.09C103.992 -428.09 303.406 -228.897 303.406 16.8137Z" stroke="white" stroke-width="5"/>
<path d="M231.451 16.8156C231.451 223.355 64.2437 390.783 -142.01 390.783C-348.263 390.783 -515.471 223.355 -515.471 16.8156C-515.471 -189.724 -348.263 -357.152 -142.01 -357.152C64.2437 -357.152 231.451 -189.724 231.451 16.8156Z" stroke="white" stroke-width="5"/>
<circle cx="-141.5" cy="17.8265" r="317.219" stroke="white" stroke-width="5"/>
</g>
<defs>
<clipPath id="clip0_3845_2514">
<rect width="1061" height="933.538" fill="white" transform="translate(-672 -513.686)"/>
</clipPath>
</defs>
</svg>
