<svg width="60" height="60" viewBox="0 0 60 60" fill="none" xmlns="http://www.w3.org/2000/svg">
<g clip-path="url(#clip0_3845_1653)">
<circle opacity="0.2" cx="30" cy="30.1162" r="30" fill="#368CDC"/>
<path fill-rule="evenodd" clip-rule="evenodd" d="M19 37.1162C18.4696 37.1162 17.9609 36.9055 17.5858 36.5304C17.2107 36.1554 17 35.6466 17 35.1162V25.1162C17 24.5858 17.2107 24.0771 17.5858 23.702C17.9609 23.3269 18.4696 23.1162 19 23.1162H32C32.5304 23.1162 33.0391 23.3269 33.4142 23.702C33.7893 24.0771 34 24.5858 34 25.1162V35.1162C34 35.6466 33.7893 36.1554 33.4142 36.5304C33.0391 36.9055 32.5304 37.1162 32 37.1162H19ZM36 33.1162L40.445 36.0802C40.5957 36.1807 40.7708 36.2385 40.9517 36.2472C41.1326 36.2559 41.3125 36.2154 41.4722 36.1298C41.6319 36.0443 41.7653 35.917 41.8583 35.7616C41.9512 35.6061 42.0002 35.4283 42 35.2472V24.9852C42 24.8042 41.9509 24.6265 41.8579 24.4712C41.7648 24.3159 41.6314 24.1887 41.4718 24.1033C41.3121 24.0179 41.1323 23.9775 40.9515 23.9862C40.7707 23.995 40.5956 24.0527 40.445 24.1532L36 27.1162V33.1162Z" fill="#368CDC"/>
</g>
<defs>
<clipPath id="clip0_3845_1653">
<rect width="60" height="58.8878" fill="white" transform="translate(0 0.116211)"/>
</clipPath>
</defs>
</svg>
